<svg width="190" height="190" viewBox="0 0 190 190" fill="none" xmlns="http://www.w3.org/2000/svg">
<g opacity="0.05">
<path d="M153.717 52.8747C161.871 61.5356 166.249 71.2493 166.249 86.9956C166.249 114.704 146.805 139.538 118.511 151.817L111.442 140.908C137.844 126.626 143.005 108.093 145.072 96.4085C140.82 98.6093 135.255 99.3772 129.792 98.8706C115.511 97.5485 104.253 85.8239 104.253 71.2493C104.253 63.9006 107.172 56.8529 112.369 51.6566C117.565 46.4602 124.613 43.541 131.962 43.541C140.456 43.541 148.587 47.4202 153.717 52.8747ZM74.5499 52.8747C82.7041 61.5356 87.082 71.2493 87.082 86.9956C87.082 114.704 67.6386 139.538 39.3445 151.817L32.2749 140.908C58.677 126.626 63.8386 108.093 65.897 96.4085C61.6457 98.6093 56.0803 99.3772 50.6257 98.8706C36.3441 97.5485 25.0945 85.8239 25.0945 71.2493C25.0945 63.9006 28.0137 56.8529 33.2101 51.6566C38.4064 46.4602 45.4541 43.541 52.8028 43.541C61.2974 43.541 69.4278 47.4202 74.5578 52.8747H74.5499Z" fill="white"/>
</g>
</svg>
