<svg width="180" height="53" viewBox="0 0 180 53" fill="none" xmlns="http://www.w3.org/2000/svg">
<g clip-path="url(#clip0_3_141897)">
<path d="M173.596 52.6665H6.30533C2.82933 52.6665 0 49.9001 0 46.5136V6.8103C0 3.4225 2.82933 0.666504 6.30533 0.666504H173.596C177.071 0.666504 180 3.4225 180 6.8103V46.5136C180 49.9001 177.071 52.6665 173.596 52.6665Z" fill="#A6A6A6"/>
<path d="M178.709 46.5149C178.709 49.2657 176.424 51.4939 173.597 51.4939H6.30531C3.47998 51.4939 1.18665 49.2657 1.18665 46.5149V6.80902C1.18665 4.05952 3.47998 1.82352 6.30531 1.82352H173.596C176.424 1.82352 178.708 4.05952 178.708 6.80902L178.709 46.5149Z" fill="black"/>
<path d="M40.1707 26.3857C40.132 22.1958 43.6894 20.1574 43.852 20.0625C41.8374 17.1986 38.7147 16.8073 37.6174 16.7761C34.9947 16.507 32.4507 18.3062 31.1147 18.3062C29.752 18.3062 27.6947 16.8021 25.4774 16.8463C22.624 16.8892 19.9547 18.4999 18.4907 21.0011C15.4694 26.101 17.7227 33.5955 20.6174 37.7178C22.0654 39.7367 23.7574 41.9909 25.972 41.9116C28.1387 41.8245 28.948 40.5648 31.5627 40.5648C34.1534 40.5648 34.9134 41.9116 37.172 41.8609C39.4974 41.8245 40.9614 39.8329 42.3587 37.7958C44.032 35.4818 44.704 33.2029 44.7307 33.0859C44.676 33.0677 40.2147 31.4076 40.1707 26.3857Z" fill="white"/>
<path d="M35.9041 14.0643C37.0694 12.6434 37.8667 10.7103 37.6454 8.7486C35.9587 8.8214 33.8494 9.8861 32.6347 11.2758C31.5601 12.5004 30.6001 14.5076 30.8481 16.3952C32.7427 16.533 34.6881 15.4631 35.9041 14.0643Z" fill="white"/>
<path d="M71.5266 41.6217H68.4986L66.84 36.54H61.0746L59.4946 41.6217H56.5466L62.2586 24.3213H65.7866L71.5266 41.6217ZM66.34 34.408L64.84 29.8905C64.6813 29.429 64.384 28.3422 63.9453 26.6314H63.892C63.7173 27.3672 63.436 28.454 63.0493 29.8905L61.576 34.408H66.34Z" fill="white"/>
<path d="M86.216 35.2309C86.216 37.3525 85.628 39.0295 84.452 40.2606C83.3987 41.3565 82.0907 41.9038 80.5293 41.9038C78.844 41.9038 77.6333 41.3136 76.896 40.1332H76.8427V46.7047H74V33.2536C74 31.9198 73.964 30.5509 73.8947 29.1469H76.3947L76.5533 31.1242H76.6067C77.5547 29.6344 78.9933 28.8908 80.924 28.8908C82.4333 28.8908 83.6933 29.4719 84.7013 30.6354C85.712 31.8002 86.216 33.3316 86.216 35.2309ZM83.32 35.3323C83.32 34.1181 83.04 33.1171 82.4773 32.3293C81.8627 31.5077 81.0373 31.0969 80.0027 31.0969C79.3013 31.0969 78.664 31.3257 78.0947 31.7768C77.524 32.2318 77.1506 32.8259 76.976 33.5617C76.888 33.9049 76.844 34.1857 76.844 34.4067V36.4867C76.844 37.3941 77.1293 38.1598 77.7 38.7851C78.2707 39.4104 79.012 39.7224 79.924 39.7224C80.9947 39.7224 81.828 39.3194 82.424 38.516C83.0213 37.7113 83.32 36.6505 83.32 35.3323Z" fill="white"/>
<path d="M100.932 35.2309C100.932 37.3525 100.344 39.0295 99.1666 40.2606C98.1146 41.3565 96.8066 41.9038 95.2453 41.9038C93.5599 41.9038 92.3493 41.3136 91.6133 40.1332H91.5599V46.7047H88.7173V33.2536C88.7173 31.9198 88.6813 30.5509 88.6119 29.1469H91.1119L91.2706 31.1242H91.3239C92.2706 29.6344 93.7093 28.8908 95.6413 28.8908C97.1493 28.8908 98.4093 29.4719 99.4199 30.6354C100.427 31.8002 100.932 33.3316 100.932 35.2309ZM98.0359 35.3323C98.0359 34.1181 97.7546 33.1171 97.1919 32.3293C96.5773 31.5077 95.7546 31.0969 94.7186 31.0969C94.0159 31.0969 93.3799 31.3257 92.8093 31.7768C92.2386 32.2318 91.8666 32.8259 91.6919 33.5617C91.6053 33.9049 91.5599 34.1857 91.5599 34.4067V36.4867C91.5599 37.3941 91.8453 38.1598 92.4133 38.7851C92.9839 39.4091 93.7253 39.7224 94.6399 39.7224C95.7106 39.7224 96.5439 39.3194 97.1399 38.516C97.7373 37.7113 98.0359 36.6505 98.0359 35.3323Z" fill="white"/>
<path d="M117.385 36.7701C117.385 38.2417 116.861 39.439 115.809 40.3633C114.653 41.3734 113.044 41.8778 110.976 41.8778C109.067 41.8778 107.536 41.519 106.377 40.8001L107.036 38.49C108.284 39.2258 109.653 39.595 111.145 39.595C112.216 39.595 113.049 39.3584 113.648 38.8878C114.244 38.4172 114.541 37.7854 114.541 36.9976C114.541 36.2956 114.296 35.7041 113.804 35.2244C113.315 34.7447 112.497 34.2988 111.356 33.8867C108.249 32.757 106.697 31.1021 106.697 28.9259C106.697 27.5037 107.241 26.3376 108.331 25.4302C109.416 24.5215 110.864 24.0678 112.675 24.0678C114.289 24.0678 115.631 24.3421 116.701 24.8894L115.991 27.1488C114.991 26.6184 113.86 26.3532 112.595 26.3532C111.595 26.3532 110.813 26.5937 110.253 27.0721C109.78 27.4998 109.543 28.0211 109.543 28.6386C109.543 29.3224 109.813 29.8879 110.357 30.3325C110.831 30.7433 111.691 31.1879 112.939 31.6676C114.465 32.2669 115.587 32.9676 116.308 33.771C117.027 34.5718 117.385 35.5741 117.385 36.7701Z" fill="white"/>
<path d="M126.784 31.2269H123.651V37.2836C123.651 38.8241 124.203 39.5937 125.309 39.5937C125.817 39.5937 126.239 39.5508 126.572 39.465L126.651 41.5697C126.091 41.7738 125.353 41.8765 124.44 41.8765C123.317 41.8765 122.44 41.5424 121.807 40.8755C121.176 40.2073 120.859 39.0867 120.859 37.5124V31.2243H118.992V29.1443H120.859V26.8602L123.651 26.0386V29.1443H126.784V31.2269Z" fill="white"/>
<path d="M140.921 35.2816C140.921 37.1991 140.359 38.7734 139.236 40.0045C138.059 41.272 136.496 41.9038 134.548 41.9038C132.671 41.9038 131.176 41.2967 130.061 40.0825C128.947 38.8683 128.389 37.3356 128.389 35.4883C128.389 33.5552 128.963 31.9718 130.113 30.7407C131.261 29.5083 132.811 28.8921 134.759 28.8921C136.636 28.8921 138.147 29.4992 139.287 30.7147C140.377 31.8938 140.921 33.4161 140.921 35.2816ZM137.972 35.3713C137.972 34.2208 137.72 33.2341 137.209 32.4112C136.613 31.4154 135.761 30.9188 134.657 30.9188C133.515 30.9188 132.647 31.4167 132.051 32.4112C131.54 33.2354 131.288 34.2377 131.288 35.4233C131.288 36.5738 131.54 37.5605 132.051 38.3821C132.665 39.3779 133.524 39.8745 134.632 39.8745C135.717 39.8745 136.569 39.3675 137.184 38.3561C137.708 37.5176 137.972 36.5205 137.972 35.3713Z" fill="white"/>
<path d="M150.161 31.5844C149.88 31.5337 149.58 31.5077 149.265 31.5077C148.265 31.5077 147.492 31.8756 146.948 32.6127C146.475 33.2627 146.237 34.0843 146.237 35.0762V41.6217H143.396L143.423 33.0755C143.423 31.6377 143.387 30.3286 143.316 29.1482H145.792L145.896 31.535H145.975C146.275 30.7147 146.748 30.0543 147.396 29.559C148.029 29.1131 148.713 28.8908 149.451 28.8908C149.713 28.8908 149.951 28.909 150.161 28.9415V31.5844Z" fill="white"/>
<path d="M162.875 34.7941C162.875 35.2907 162.841 35.7093 162.771 36.0512H154.243C154.276 37.2836 154.688 38.2261 155.48 38.8761C156.199 39.4572 157.128 39.7484 158.269 39.7484C159.532 39.7484 160.684 39.5521 161.72 39.1582L162.165 41.0822C160.955 41.597 159.525 41.8531 157.876 41.8531C155.892 41.8531 154.335 41.2837 153.201 40.1462C152.071 39.0087 151.504 37.4812 151.504 35.565C151.504 33.6839 152.031 32.1174 153.085 30.8681C154.189 29.5343 155.681 28.8674 157.559 28.8674C159.403 28.8674 160.799 29.5343 161.747 30.8681C162.497 31.9276 162.875 33.238 162.875 34.7941ZM160.164 34.0752C160.183 33.2536 159.997 32.5438 159.612 31.9445C159.12 31.1736 158.364 30.7888 157.347 30.7888C156.417 30.7888 155.661 31.1645 155.084 31.9185C154.611 32.5178 154.329 33.2367 154.243 34.0739L160.164 34.0752Z" fill="white"/>
<path d="M65.4 13.6782C65.4 15.2083 64.9293 16.3601 63.9893 17.1336C63.1186 17.8473 61.8813 18.2048 60.2786 18.2048C59.484 18.2048 58.804 18.171 58.2346 18.1034V9.74311C58.9773 9.62611 59.7773 9.56631 60.6413 9.56631C62.168 9.56631 63.3186 9.89001 64.0946 10.5374C64.964 11.2693 65.4 12.3158 65.4 13.6782ZM63.9266 13.7159C63.9266 12.724 63.6573 11.9635 63.1186 11.4331C62.58 10.904 61.7933 10.6388 60.7573 10.6388C60.3173 10.6388 59.9426 10.6674 59.632 10.7272V17.0829C59.804 17.1089 60.1186 17.1206 60.576 17.1206C61.6453 17.1206 62.4706 16.8307 63.052 16.2509C63.6333 15.6711 63.9266 14.8261 63.9266 13.7159Z" fill="white"/>
<path d="M73.2119 15.0146C73.2119 15.9571 72.9359 16.7293 72.3839 17.3351C71.8052 17.9578 71.0386 18.2685 70.0812 18.2685C69.1586 18.2685 68.4239 17.9708 67.8759 17.3728C67.3292 16.7761 67.0559 16.0234 67.0559 15.116C67.0559 14.167 67.3372 13.3883 67.9026 12.7838C68.4679 12.1793 69.2279 11.8764 70.1852 11.8764C71.1079 11.8764 71.8492 12.1741 72.4106 12.7708C72.9439 13.3506 73.2119 14.0994 73.2119 15.0146ZM71.7626 15.0588C71.7626 14.4933 71.6372 14.0084 71.3879 13.6041C71.0946 13.1153 70.6772 12.8709 70.1346 12.8709C69.5732 12.8709 69.1466 13.1153 68.8532 13.6041C68.6026 14.0084 68.4786 14.5011 68.4786 15.0835C68.4786 15.649 68.6039 16.1339 68.8532 16.5382C69.1559 17.027 69.5772 17.2714 70.1212 17.2714C70.6546 17.2714 71.0732 17.0231 71.3746 16.5252C71.6332 16.1131 71.7626 15.6243 71.7626 15.0588Z" fill="white"/>
<path d="M83.6866 12.0012L81.72 18.1294H80.44L79.6253 15.4683C79.4186 14.804 79.2506 14.1436 79.12 13.4884H79.0946C78.9733 14.1618 78.8053 14.8209 78.5893 15.4683L77.724 18.1294H76.4293L74.58 12.0012H76.016L76.7266 14.9145C76.8986 15.6035 77.04 16.26 77.1533 16.8814H77.1786C77.2826 16.3692 77.4546 15.7166 77.6973 14.9275L78.5893 12.0025H79.728L80.5826 14.8651C80.7893 15.5632 80.9573 16.2353 81.0866 16.8827H81.1253C81.22 16.2522 81.3626 15.5801 81.552 14.8651L82.3146 12.0025H83.6866V12.0012Z" fill="white"/>
<path d="M90.9306 18.1294H89.5333V14.6194C89.5333 13.5378 89.1119 12.997 88.2666 12.997C87.8519 12.997 87.5173 13.1452 87.2573 13.4429C86.9999 13.7406 86.8693 14.0916 86.8693 14.4933V18.1281H85.4719V13.7523C85.4719 13.2141 85.4546 12.6304 85.4213 11.9986H86.6493L86.7146 12.9567H86.7533C86.9159 12.659 87.1586 12.4133 87.4773 12.217C87.8559 11.9882 88.2799 11.8725 88.7439 11.8725C89.3306 11.8725 89.8186 12.0571 90.2066 12.4276C90.6893 12.8813 90.9306 13.5586 90.9306 14.4582V18.1294Z" fill="white"/>
<path d="M94.7839 18.1294H93.3879V9.1893H94.7839V18.1294Z" fill="white"/>
<path d="M103.011 15.0146C103.011 15.9571 102.735 16.7293 102.183 17.3351C101.604 17.9578 100.836 18.2685 99.88 18.2685C98.956 18.2685 98.2213 17.9708 97.6746 17.3728C97.1279 16.7761 96.8546 16.0234 96.8546 15.116C96.8546 14.167 97.136 13.3883 97.7013 12.7838C98.2666 12.1793 99.0266 11.8764 99.9826 11.8764C100.907 11.8764 101.647 12.1741 102.209 12.7708C102.743 13.3506 103.011 14.0994 103.011 15.0146ZM101.56 15.0588C101.56 14.4933 101.435 14.0084 101.185 13.6041C100.893 13.1153 100.475 12.8709 99.9333 12.8709C99.3706 12.8709 98.9439 13.1153 98.6519 13.6041C98.4013 14.0084 98.2773 14.5011 98.2773 15.0835C98.2773 15.649 98.4026 16.1339 98.6519 16.5382C98.9546 17.027 99.376 17.2714 99.92 17.2714C100.453 17.2714 100.871 17.0231 101.172 16.5252C101.432 16.1131 101.56 15.6243 101.56 15.0588Z" fill="white"/>
<path d="M109.773 18.1294H108.519L108.415 17.4235H108.376C107.947 17.9864 107.335 18.2685 106.54 18.2685C105.947 18.2685 105.467 18.0826 105.105 17.7134C104.777 17.378 104.613 16.9607 104.613 16.4654C104.613 15.7166 104.933 15.1459 105.577 14.7507C106.22 14.3555 107.124 14.1618 108.288 14.1709V14.0565C108.288 13.2492 107.853 12.8462 106.983 12.8462C106.363 12.8462 105.816 12.9983 105.344 13.2999L105.06 12.4055C105.644 12.0532 106.365 11.8764 107.216 11.8764C108.859 11.8764 109.683 12.7214 109.683 14.4114V16.6682C109.683 17.2805 109.713 17.768 109.773 18.1294ZM108.323 16.0234V15.0783C106.781 15.0523 106.011 15.4644 106.011 16.3133C106.011 16.6331 106.099 16.8723 106.279 17.0322C106.459 17.1921 106.688 17.2714 106.961 17.2714C107.268 17.2714 107.555 17.1765 107.816 16.988C108.079 16.7982 108.24 16.5577 108.3 16.2626C108.315 16.1963 108.323 16.1157 108.323 16.0234Z" fill="white"/>
<path d="M117.713 18.1294H116.473L116.408 17.1453H116.369C115.973 17.8941 115.299 18.2685 114.351 18.2685C113.593 18.2685 112.963 17.9786 112.463 17.3988C111.963 16.819 111.713 16.0663 111.713 15.142C111.713 14.1501 111.984 13.3467 112.528 12.7331C113.055 12.1611 113.7 11.8751 114.468 11.8751C115.312 11.8751 115.903 12.152 116.239 12.7071H116.265V9.1893H117.664V16.4784C117.664 17.0751 117.68 17.625 117.713 18.1294ZM116.265 15.545V14.5232C116.265 14.3464 116.252 14.2034 116.227 14.0942C116.148 13.7666 115.979 13.491 115.721 13.2687C115.461 13.0464 115.148 12.9346 114.787 12.9346C114.265 12.9346 113.857 13.1361 113.557 13.5404C113.26 13.9447 113.109 14.4608 113.109 15.0913C113.109 15.6971 113.252 16.1885 113.539 16.5668C113.841 16.9698 114.249 17.1713 114.76 17.1713C115.219 17.1713 115.585 17.0036 115.864 16.6669C116.133 16.3562 116.265 15.9818 116.265 15.545Z" fill="white"/>
<path d="M129.664 15.0146C129.664 15.9571 129.388 16.7293 128.836 17.3351C128.257 17.9578 127.492 18.2685 126.533 18.2685C125.612 18.2685 124.877 17.9708 124.328 17.3728C123.781 16.7761 123.508 16.0234 123.508 15.116C123.508 14.167 123.789 13.3883 124.355 12.7838C124.92 12.1793 125.68 11.8764 126.639 11.8764C127.56 11.8764 128.303 12.1741 128.863 12.7708C129.396 13.3506 129.664 14.0994 129.664 15.0146ZM128.216 15.0588C128.216 14.4933 128.091 14.0084 127.841 13.6041C127.547 13.1153 127.131 12.8709 126.587 12.8709C126.027 12.8709 125.6 13.1153 125.305 13.6041C125.055 14.0084 124.931 14.5011 124.931 15.0835C124.931 15.649 125.056 16.1339 125.305 16.5382C125.608 17.027 126.029 17.2714 126.573 17.2714C127.107 17.2714 127.527 17.0231 127.828 16.5252C128.085 16.1131 128.216 15.6243 128.216 15.0588Z" fill="white"/>
<path d="M137.177 18.1294H135.781V14.6194C135.781 13.5378 135.36 12.997 134.513 12.997C134.099 12.997 133.764 13.1452 133.505 13.4429C133.247 13.7406 133.117 14.0916 133.117 14.4933V18.1281H131.719V13.7523C131.719 13.2141 131.703 12.6304 131.669 11.9986H132.896L132.961 12.9567H133C133.164 12.659 133.407 12.4133 133.724 12.217C134.104 11.9882 134.527 11.8725 134.992 11.8725C135.577 11.8725 136.065 12.0571 136.453 12.4276C136.937 12.8813 137.177 13.5586 137.177 14.4582V18.1294Z" fill="white"/>
<path d="M146.581 13.0217H145.043V15.9987C145.043 16.7553 145.316 17.1336 145.857 17.1336C146.108 17.1336 146.316 17.1128 146.48 17.0699L146.516 18.1034C146.24 18.2048 145.877 18.2555 145.431 18.2555C144.879 18.2555 144.449 18.0917 144.139 17.7641C143.827 17.4365 143.672 16.8853 143.672 16.1118V13.0217H142.753V12.0012H143.672V10.878L145.041 10.475V11.9999H146.58L146.581 13.0217Z" fill="white"/>
<path d="M153.979 18.1294H152.58V14.6454C152.58 13.5469 152.159 12.997 151.315 12.997C150.667 12.997 150.224 13.3155 149.981 13.9525C149.94 14.0864 149.916 14.2502 149.916 14.4426V18.1281H148.52V9.1893H149.916V12.8826H149.943C150.383 12.2105 151.013 11.8751 151.831 11.8751C152.409 11.8751 152.888 12.0597 153.268 12.4302C153.741 12.8917 153.979 13.5781 153.979 14.4855V18.1294Z" fill="white"/>
<path d="M161.609 14.7754C161.609 15.0198 161.591 15.2252 161.557 15.3929H157.367C157.385 15.9987 157.585 16.4602 157.973 16.78C158.328 17.066 158.785 17.209 159.345 17.209C159.965 17.209 160.531 17.1128 161.04 16.9191L161.259 17.8655C160.663 18.1177 159.961 18.2438 159.149 18.2438C158.176 18.2438 157.409 17.9643 156.855 17.4053C156.297 16.8463 156.021 16.0962 156.021 15.155C156.021 14.2307 156.279 13.4611 156.797 12.8475C157.339 12.1923 158.071 11.8647 158.995 11.8647C159.899 11.8647 160.585 12.1923 161.049 12.8475C161.424 13.3675 161.609 14.011 161.609 14.7754ZM160.276 14.4231C160.287 14.0188 160.195 13.6704 160.005 13.3766C159.763 12.9983 159.393 12.8085 158.893 12.8085C158.437 12.8085 158.065 12.9931 157.781 13.3636C157.549 13.6587 157.412 14.011 157.367 14.4231H160.276Z" fill="white"/>
</g>
<defs>
<clipPath id="clip0_3_141897">
<rect width="180" height="52" fill="white" transform="translate(0 0.666504)"/>
</clipPath>
</defs>
</svg>
